<?xml version="1.0" encoding="UTF-8"?>
<!DOCTYPE svg PUBLIC "-//W3C//DTD SVG 1.1//EN" "http://www.w3.org/Graphics/SVG/1.1/DTD/svg11.dtd">
<!-- Creator: CorelDRAW 2017 -->
<svg xmlns="http://www.w3.org/2000/svg" xml:space="preserve" width="200mm" height="150mm" version="1.1" style="shape-rendering:geometricPrecision; text-rendering:geometricPrecision; image-rendering:optimizeQuality; fill-rule:evenodd; clip-rule:evenodd"
viewBox="0 0 20000 15000"
 xmlns:xlink="http://www.w3.org/1999/xlink">
 <defs>
  <style type="text/css">
   <![CDATA[
    .str1 {stroke:#FEFEFE;stroke-width:7.62;stroke-miterlimit:22.9256;stroke-opacity:0.678431}
    .str0 {stroke:#EBECEC;stroke-width:7.62;stroke-miterlimit:22.9256;stroke-opacity:0.678431}
    .fil0 {fill:#FEFEFE;fill-opacity:0.678431}
    .fil1 {fill:#FEFEFE;fill-rule:nonzero;fill-opacity:0.678431}
   ]]>
  </style>
 </defs>
 <g id="Слой_x0020_1">
  <metadata id="CorelCorpID_0Corel-Layer"/>
  <g id="_2898960879728">
   <path class="fil0 str0" d="M5525.5 10555.54c42.62,0 77.17,33.23 77.17,74.2 0,40.98 -34.55,74.2 -77.17,74.2 -42.62,0 -77.17,-33.22 -77.17,-74.2 0,-40.97 34.55,-74.2 77.17,-74.2z"/>
   <path class="fil0 str0" d="M14273.98 10555.54c42.63,0 77.17,33.23 77.17,74.2 0,40.98 -34.54,74.2 -77.17,74.2 -42.62,0 -77.16,-33.22 -77.16,-74.2 0,-40.97 34.54,-74.2 77.16,-74.2z"/>
   <g>
    <path class="fil0" d="M5806.77 4252.89c-296.68,694.92 -584.54,3265.2 59.59,4082.91 103.36,131.21 301.78,676.93 582.43,273.38 477.54,-686.68 534.88,-2171.61 534.88,-3054.77 953.29,-448.57 1411.53,-1458.49 2068.21,-2258.38 983.11,-1197.49 78.14,-2436.86 -225.84,-915.24 -180.06,901.37 -1350.62,2353.47 -2341.59,2353.47 -105.14,0 -108.21,2850.65 -332.82,2508 -239.01,-364.62 -614.52,-2252.88 -344.86,-2989.37z"/>
    <path class="fil0 str1" d="M8413.02 4665.9c-91.5,213.5 -543.24,419.49 -647.14,908.41 -68.17,320.78 -223.7,2131.05 26.05,2630.74 163.2,326.47 839.82,494.45 1344.45,-43.1 637.58,352.39 1292.2,-366.4 1336.32,-497.39 311.25,214.65 396.27,314.01 1034.29,-113.04 200.99,311.53 949.08,242.5 1646.44,21.92 7.04,260.94 970.46,536.06 1205.09,253.47 -22.51,292.5 -73.72,693.32 -125.45,985.4 -2813.25,77.04 -6540.09,248.71 -9329.49,486.28 -879.47,74.9 -2553.32,257.21 -1673.21,221.53l10957.2 -444.06c-1.8,268.13 -13.39,1116.92 71.75,1122.71 58.24,3.95 194.7,-636.28 194.7,-1131.1 522.35,-27.69 1887.3,-45.65 2573.53,-244.53 1215.15,-352.18 -1731.29,-882.2 -2449.2,-1234.24 23.44,-254.86 36.36,-599.87 149.19,-893.27 23.31,-60.63 849.19,1.31 1068.75,-100.93 116.81,-54.38 326.42,-248.5 165.65,-302.97 -151.02,-51.17 -790.42,47.35 -1085.23,47.35 3.21,-296.79 1049.52,-3464.13 528.36,-2894.24 -144.47,157.97 -842.05,2779.89 -908.44,2929.4 -150.46,23.75 -490.12,42.11 -812.46,112.57 -2608.56,570.34 467.44,249.79 782.02,208.85 -81.98,346.66 -87.67,668.76 -122.93,842.15 -58.68,288.51 -964.25,118.91 -881.33,-4.91 364.82,-544.79 -328.01,-688.69 -534.12,-209.89 -60.66,140.92 -265.96,217.19 -606.14,217.19 -1110.29,0 -98.04,-740.2 -357.62,-821.12 -1214.92,-378.73 -677.55,11.93 -677.55,344.89 0,805.17 -858.1,574.12 -659.57,119.43 23.69,-54.25 -89.31,22.97 -112.85,-0.57 -68.89,-68.88 -260.29,534.52 -701.48,523 -329.2,-8.6 -47.72,-1026.16 404.13,-784.5 202.81,108.46 14.23,-532.1 -754.84,-403.95 -585.48,97.53 -588.59,1000.19 -421.77,1295.41 -126.43,96.07 -201.45,107.96 -285.43,100.98 -1398.68,-116.34 188.01,-2718.19 -341.67,-3247.87zm6106.54 3182.56c26.97,116.94 16.98,857.71 -24.3,972.08 1082.49,-70.48 1905.7,39.19 1830.51,-139.72 -58.47,-139.13 -790.25,-510.59 -1806.21,-832.36z"/>
    <path class="fil0" d="M3498.85 5537.08c-7.81,1.28 -15.47,3.22 -23.08,5.32 -55.8,15.35 -110.2,30.18 -159.5,56.12 -286.4,150.73 -484.41,446.82 -641.18,729.11 -193.99,349.29 -304.02,769.4 -308.79,1085.44 -4.64,307.08 -27.25,598.05 309.04,641.86 714.58,93.08 3063.7,-1086.47 2484.13,-1919.55 -232.92,-334.81 -1126.22,151.9 -1343.05,303.02 -263.28,183.46 -730.27,634.46 -856.14,855.86 -47.66,-121.08 -82.38,-257.54 -94.29,-400.22 -13.5,-161.87 -1.27,-331.69 42.28,-497.96 23.52,-89.8 62.61,-177.67 97.16,-264.77 16.65,-41.98 79.95,-163.83 164.3,-270.71 76.02,-96.34 157.79,-185.92 185.34,-210.91 25.43,-23.05 49.81,-44.87 75.72,-66.14 10.62,-8.72 21.3,-17.55 32.48,-25.59 11.19,-8.04 22.9,-15.29 35.58,-20.88zm-470.01 1865.89c88.99,-281.79 1460.9,-1461.7 1705.49,-897.74 130.59,301.09 -272.53,688.92 -558.7,837.98 -793.02,413.08 -1081.69,328.21 -1146.79,59.76"/>
   </g>
  </g>
  <path class="fil1" d="M6902.67 10639.84c0,-27.33 5.93,-52.18 17.78,-74.74 12.02,-22.55 29.8,-41.81 53.67,-58.11 23.71,-16.3 53.34,-28.81 88.9,-37.7 35.56,-8.73 76.88,-13.17 124.13,-13.17 35.07,0 71.94,2.63 110.8,7.73 38.68,5.11 78.69,13.01 119.85,23.55 -1.65,-17.95 -7.08,-34.58 -16.47,-49.89 -9.21,-15.31 -22.22,-28.48 -38.85,-39.51 -16.46,-11.03 -36.38,-19.75 -59.76,-25.85 -23.21,-6.09 -49.72,-9.21 -79.35,-9.21 -15.97,0 -33.75,0.98 -53.01,2.96 -19.26,1.97 -39.18,4.77 -59.76,8.72 -20.58,3.79 -41,8.73 -61.08,14.49 -20.08,5.76 -38.85,12.68 -56.14,20.75l-43.46 -117.22c21.57,-7.74 44.61,-14.82 69.14,-21.24 24.7,-6.42 49.89,-12.02 75.57,-16.63 25.68,-4.77 51.36,-8.23 77.21,-10.86 25.68,-2.64 50.54,-3.95 74.74,-3.95 106.35,0 185.54,27.16 237.23,81.65 51.86,54.33 77.71,137.47 77.71,249.75l0 247.93 -142.73 0 0 -53.5c-14.82,8.72 -30.96,16.79 -48.57,24.53 -17.45,7.73 -36.55,14.48 -57.13,20.24 -20.58,5.77 -42.64,10.38 -66.34,13.83 -23.55,3.3 -48.57,4.94 -74.91,5.11 -44.45,-0.17 -83.47,-4.94 -117.05,-14.49 -33.59,-9.71 -61.57,-23.05 -84.13,-40.17 -22.55,-16.96 -39.51,-37.04 -50.87,-59.93 -11.36,-23.04 -17.12,-48.07 -17.12,-75.07zm150.47 -4.77c0,9.22 2.47,18.27 7.25,26.67 4.77,8.56 12.51,16.13 23.21,22.72 10.53,6.58 24.2,11.85 40.66,15.97 16.63,3.95 36.55,5.92 60.09,5.92 25.03,0 49.39,-2.14 72.77,-6.75 23.54,-4.44 45.44,-10.37 65.69,-17.78 20.25,-7.4 38.52,-15.97 54.98,-25.51 16.3,-9.72 29.96,-19.59 41,-29.97l0 -25.02c-21.9,-6.09 -43.47,-11.36 -64.87,-15.48 -21.4,-4.11 -41.82,-7.4 -61.24,-9.87 -19.59,-2.47 -37.87,-4.12 -54.99,-5.11 -17.28,-0.98 -32.27,-1.48 -45.11,-1.48 -26.67,0 -48.89,1.81 -66.67,5.43 -17.62,3.46 -31.94,8.24 -42.81,14.16 -11.03,5.93 -18.76,13.01 -23.21,21.08 -4.44,7.9 -6.75,16.29 -6.75,25.02zm696.88 -384.91l142.73 0 0 81.99c31.61,-23.54 64.87,-43.79 99.93,-60.75 35.07,-17.12 69.81,-30.13 104.54,-39.02l41.98 130.56c-54.98,5.59 -103.22,17.78 -144.87,37.04 -41.65,19.09 -75.56,45.93 -101.58,80.67l0 338.64 -142.73 0 0 -569.13zm581.31 107.01l-137.47 0 0 -107.01 137.47 0 0 -176.97 142.73 0 0 176.97 137.47 0 0 107.01 -137.47 0 0 462.12 -142.73 0 0 -462.12zm757.62 287.45c38.52,23.21 81,40.33 127.26,51.2 46.26,10.86 93.67,16.46 142.24,16.46 32.92,0 60.25,-2.3 81.98,-6.75 21.9,-4.61 39.51,-10.37 52.69,-17.45 13.17,-7.08 22.55,-15.15 27.98,-24.04 5.43,-9.05 8.07,-18.27 8.07,-27.49 0,-13.5 -5.76,-25.19 -17.45,-34.74 -11.86,-9.71 -31.12,-14.48 -58.12,-14.48 -12.67,0 -26.17,0.82 -40.66,2.3 -14.32,1.65 -29.63,3.29 -45.44,5.1 -15.97,1.82 -32.59,3.46 -49.72,5.11 -17.28,1.64 -34.73,2.47 -52.35,2.47 -38.52,0 -71.45,-4.28 -98.61,-12.68 -27.17,-8.23 -49.23,-19.75 -66.35,-34.24 -16.95,-14.32 -29.47,-31.45 -37.2,-51.37 -7.58,-19.75 -11.53,-40.99 -11.53,-63.87 0,-28.98 6.75,-55.65 20.25,-80.01 13.5,-24.53 32.76,-45.61 57.95,-63.39 25.03,-17.94 55.32,-31.77 90.88,-41.81 35.56,-9.88 75.23,-14.98 118.86,-14.98 22.88,0 46.75,1.48 71.61,4.11 25.03,2.8 49.56,6.42 73.59,10.87 24.04,4.61 47.25,9.71 69.48,15.64 22.22,6.09 41.81,12.35 58.77,19.1l-44.78 110.96c-36.38,-13.5 -72.6,-24.2 -108.82,-32.11 -36.22,-7.9 -73.42,-11.85 -111.62,-11.85 -26.67,0 -49.22,2.14 -67.83,6.09 -18.43,3.95 -33.42,9.38 -45.1,15.97 -11.53,6.59 -19.93,14.16 -25.19,22.55 -5.44,8.57 -8.07,17.46 -8.07,26.84 0,6.75 1.48,12.84 4.12,18.27 2.79,5.6 7.24,10.21 13.5,14.33 6.25,3.95 14.48,7.07 24.69,9.05 10.04,2.14 22.55,3.13 37.37,3.13 13.5,0 27.82,-0.66 42.8,-2.31 15.15,-1.64 30.96,-3.29 47.25,-5.1 16.47,-1.81 33.42,-3.46 51.04,-5.1 17.45,-1.49 35.39,-2.31 53.67,-2.31 34.08,0 63.87,3.95 89.56,12.02 25.51,8.07 46.59,19.26 63.38,33.75 16.79,14.49 29.3,31.44 37.54,51.2 8.39,19.59 12.67,40.99 12.67,64.04 0,29.96 -6.91,57.79 -20.74,83.47 -13.83,25.68 -34.41,47.9 -61.74,66.84 -27.33,18.76 -61.41,33.42 -102.07,44.12 -40.66,10.53 -87.75,15.8 -141.09,15.97 -32.76,-0.17 -64.37,-2.14 -94.99,-6.09 -30.62,-4.12 -59.59,-9.55 -87.25,-16.47 -27.66,-6.91 -53.67,-14.98 -77.87,-24.36 -24.37,-9.22 -46.43,-19.26 -66.35,-29.8l61.74 -108.16zm804.55 -287.45l-137.47 0 0 -107.01 137.47 0 0 -176.97 142.73 0 0 176.97 137.47 0 0 107.01 -137.47 0 0 462.12 -142.73 0 0 -462.12zm406.96 -107.5l142.24 0 0 277.9c0,26.34 2.96,50.37 8.73,72.1 5.76,21.57 15.64,40.17 29.63,55.65 13.99,15.47 32.6,27.33 55.97,35.89 23.38,8.56 52.36,12.84 87.09,12.84 16.3,0 33.09,-1.81 49.88,-5.27 16.96,-3.62 33.1,-8.56 48.41,-14.82 15.47,-6.25 29.96,-13.66 43.29,-22.39 13.34,-8.72 24.86,-18.1 34.41,-28.48l0 -383.42 142.74 0 0 569.62 -142.74 0 0 -48.73c-35.06,20.91 -70.3,35.89 -105.53,44.94 -35.39,8.89 -68.98,13.5 -100.91,13.5 -52.03,0 -96.64,-6.42 -133.85,-18.93 -37.04,-12.51 -67.5,-30.79 -91.04,-54.66 -23.71,-24.03 -40.99,-53.34 -51.86,-88.24 -11.03,-34.9 -16.46,-74.74 -16.46,-119.35l0 -298.15zm779.85 287.44c0,-45.27 8.56,-86.26 25.69,-122.65 16.95,-36.54 40.49,-67.82 70.62,-93.67 30.13,-25.85 65.69,-45.77 107.01,-59.76 41.32,-13.99 86.1,-21.07 134.34,-21.07 20.58,0 40.99,1.31 61.08,3.95 20.08,2.63 39.34,6.09 57.78,10.53 18.61,4.61 35.89,9.88 52.19,16.14 16.13,6.42 30.62,13.17 43.13,20.58l0 -271.97 142.74 0 0 800.1 -142.74 0 0 -53.5c-12.51,8.72 -27.33,16.79 -44.45,24.53 -16.95,7.73 -35.23,14.48 -54.98,20.24 -19.59,5.77 -39.84,10.38 -60.92,13.83 -21.07,3.3 -41.98,4.94 -62.56,5.11 -48.07,-0.17 -92.52,-7.08 -132.85,-21.24 -40.34,-14.16 -74.91,-34.08 -103.88,-59.93 -28.98,-25.68 -51.53,-56.46 -67.83,-92.35 -16.14,-35.89 -24.37,-75.4 -24.37,-118.87zm150.15 0c0,22.89 4.44,44.45 13.66,64.7 9.22,20.25 22.39,38.03 39.51,53.18 17.29,15.31 38.03,27.33 62.23,36.22 24.37,8.89 51.53,13.33 81.82,13.33 19.26,0 38.53,-1.97 57.79,-5.59 19.42,-3.63 37.86,-8.89 55.81,-15.64 17.78,-6.75 34.57,-14.99 50.04,-24.7 15.64,-9.55 29.31,-20.41 40.83,-32.27l0 -197.22c-14.48,-11.53 -29.8,-21.41 -45.76,-29.47 -16.14,-8.07 -32.6,-14.65 -49.23,-19.76 -16.79,-5.1 -33.58,-8.89 -50.7,-11.36 -16.96,-2.3 -33.59,-3.62 -49.72,-3.62 -32.76,0 -61.9,4.45 -87.42,13.34 -25.68,8.72 -47.09,20.9 -64.7,36.38 -17.45,15.47 -30.95,33.58 -40.34,54.49 -9.21,20.91 -13.82,43.63 -13.82,67.99zm794.34 -364.65c-14.16,0 -27,-1.98 -38.36,-5.93 -11.36,-4.11 -21.08,-9.55 -29.14,-16.46 -8.07,-6.92 -14.33,-14.98 -18.61,-24.04 -4.28,-9.22 -6.42,-18.93 -6.42,-29.3 0,-10.54 2.14,-20.42 6.42,-29.63 4.28,-9.22 10.54,-17.13 18.61,-23.88 8.06,-6.75 17.78,-12.18 29.14,-16.13 11.36,-3.95 24.2,-6.09 38.36,-6.09 14.48,0 27.49,2.14 38.85,6.09 11.36,3.95 21.07,9.38 29.14,16.13 8.06,6.75 14.32,14.66 18.6,23.88 4.28,9.21 6.59,19.09 6.59,29.63 0,10.37 -2.31,20.08 -6.59,29.3 -4.28,9.06 -10.54,17.12 -18.6,24.04 -8.07,6.91 -17.78,12.35 -29.14,16.46 -11.36,3.95 -24.37,5.93 -38.85,5.93zm-71.45 77.7l142.89 0 0 569.13 -142.89 0 0 -569.13zm291.39 284.48c0,-40.82 8.23,-79.02 24.86,-114.74 16.46,-35.73 40.17,-66.84 70.95,-93.51 30.62,-26.67 67.83,-47.74 111.29,-63.22 43.63,-15.48 92.52,-23.21 146.85,-23.21 54.33,0 103.39,7.73 146.85,23.21 43.63,15.48 80.83,36.55 111.46,63.22 30.78,26.67 54.32,57.78 70.95,93.51 16.63,35.72 24.86,73.92 24.86,114.74 0,40.83 -8.23,79.19 -24.86,114.92 -16.63,35.72 -40.17,66.84 -70.95,93.51 -30.63,26.67 -67.83,47.74 -111.46,63.21 -43.46,15.48 -92.52,23.05 -146.85,23.22 -54.33,-0.17 -103.22,-7.74 -146.85,-23.22 -43.46,-15.47 -80.67,-36.54 -111.29,-63.21 -30.78,-26.67 -54.49,-57.79 -70.95,-93.51 -16.63,-35.73 -24.86,-74.09 -24.86,-114.92zm149.97 0c0,22.89 4.61,44.45 13.83,65.03 9.06,20.42 22.39,38.36 40.01,54 17.45,15.48 38.85,27.99 64.04,37.04 25.35,9.22 54,13.83 86.1,13.83 32.27,0 60.91,-4.61 86.1,-13.83 25.36,-9.05 46.76,-21.56 64.21,-37.04 17.45,-15.64 30.95,-33.58 40,-54 9.22,-20.58 13.83,-42.14 13.83,-65.03 0,-22.71 -4.61,-44.45 -13.83,-65.02 -9.05,-20.58 -22.55,-38.69 -40,-54.33 -17.45,-15.48 -38.85,-27.99 -64.21,-37.04 -25.19,-9.22 -53.83,-13.83 -86.1,-13.83 -32.1,0 -60.75,4.61 -86.1,13.83 -25.19,9.05 -46.59,21.56 -64.04,37.04 -17.62,15.64 -30.95,33.75 -40.01,54.33 -9.22,20.57 -13.83,42.31 -13.83,65.02z"/>
 </g>
</svg>
